<?xml version="1.0" encoding="UTF-8"?>
<svg version="1.1" xmlns="http://www.w3.org/2000/svg" width="512" height="512">
<path d="M0 0 C1.09538086 -0.0299707 1.09538086 -0.0299707 2.21289062 -0.06054688 C13.32442595 -0.05087626 22.06274259 5.20514924 30.9375 11.375 C31.96641357 12.07536377 32.99532715 12.77572754 34.05541992 13.49731445 C36.283691 15.01501667 38.50882382 16.5364431 40.72998047 18.06445312 C44.18525555 20.4395805 47.65510859 22.79269752 51.12890625 25.140625 C52.3374086 25.95767304 53.54590459 26.77473048 54.75439453 27.59179688 C55.36752502 28.00631104 55.98065552 28.4208252 56.61236572 28.84790039 C59.19606744 30.59593204 61.77759431 32.34716166 64.35913086 34.09838867 C75.083071 41.37283104 85.82044027 48.62734666 96.5625 55.875 C97.93583496 56.80162949 97.93583496 56.80162949 99.33691406 57.74697876 C112.22045524 66.43754647 125.13283471 75.08340863 138.07202148 83.69085693 C146.77160543 89.47905843 155.43966085 95.30826532 164.06201172 101.21118164 C173.88862057 107.93178124 183.75608931 114.59173299 193.625 121.25 C195.00948334 122.18422791 195.00948334 122.18422791 196.42193604 123.1373291 C210.71997576 132.78244006 225.06339459 142.35755906 239.42697144 151.9046936 C249.45581163 158.57395384 259.41579999 165.32025026 269.26586914 172.25195312 C278.53105451 178.74086096 287.95567888 184.98796818 297.375 191.25 C320.77842981 206.81363598 320.77842981 206.81363598 331.45376587 214.03549194 C332.634588 214.83389454 333.81618666 215.63115007 334.99862671 216.42715454 C347.26183374 224.68593141 357.28848777 232.34957439 360.75 247.55859375 C362.63096113 259.93598976 360.69894913 270.54071507 353.8125 281.0625 C348.66039059 287.64783258 342.09490674 291.91869327 335.1875 296.4375 C333.60948683 297.49040582 332.03273661 298.5452061 330.45703125 299.6015625 C326.56606495 302.20599671 322.66722966 304.79825276 318.765625 307.38671875 C309.22424995 313.72477423 299.74210282 320.15102664 290.25 326.5625 C275.66991732 336.40903052 261.06801293 346.22086487 246.40649414 355.94580078 C238.7681978 361.01731247 231.1840608 366.16299619 223.62271118 371.348526 C214.30128598 377.73808622 204.93348622 384.05844325 195.5625 390.375 C194.63872559 390.99802002 193.71495117 391.62104004 192.76318359 392.26293945 C179.00957988 401.53782975 165.23187087 410.77562414 151.40771484 419.94506836 C143.76895715 425.01674421 136.18445231 430.1627277 128.62271118 435.348526 C119.3012887 441.73808435 109.93365768 448.05870165 100.5625 454.375 C99.17285034 455.31202255 99.17285034 455.31202255 97.75512695 456.26797485 C84.09316158 465.47881863 70.41675502 474.66774112 56.68896484 483.78027344 C55.38635319 484.64512199 54.08378109 485.51003011 52.78125 486.375 C52.15030426 486.79396545 51.51935852 487.21293091 50.86929321 487.64459229 C47.02379401 490.20264838 43.19528166 492.78418802 39.37902832 495.38566589 C36.90226998 497.07355004 34.42061817 498.75416369 31.9387207 500.43447876 C30.25285135 501.58057261 28.57450245 502.73770506 26.89648438 503.89526367 C18.21464549 509.76540189 10.9170115 513.02752375 0.375 512.9375 C-0.40472168 512.93250488 -1.18444336 512.92750977 -1.98779297 512.92236328 C-12.16989755 512.61788707 -21.50852077 508.59950123 -28.8125 501.4375 C-38.32922289 490.68966101 -40.10548999 479.35126917 -39.8125 465.4375 C-40.58851562 465.96706299 -41.36453125 466.49662598 -42.1640625 467.04223633 C-45.07451372 469.02255006 -47.98984692 470.99523457 -50.90869141 472.96313477 C-52.16557754 473.81271758 -53.42050716 474.665203 -54.67333984 475.52075195 C-64.10549337 481.9579149 -71.89816372 487.03789893 -83.6875 486.875 C-84.47833984 486.86525146 -85.26917969 486.85550293 -86.08398438 486.84545898 C-96.58703213 486.5272175 -103.04230708 483.07102784 -110.6171875 475.79296875 C-118.44615045 467.3928537 -121.11419839 458.03822269 -121.2109375 446.6875 C-120.17861653 438.2669995 -116.69879797 430.32136711 -113.5078125 422.5234375 C-112.86708298 420.94151611 -112.86708298 420.94151611 -112.21340942 419.32763672 C-110.79214105 415.82093929 -109.36472508 412.31677677 -107.9375 408.8125 C-106.92047467 406.30723872 -105.90496859 403.80136291 -104.88964844 401.29541016 C-103.26511675 397.28641042 -101.64033323 393.27751484 -100.01367188 389.26937866 C-95.82900345 378.95686381 -91.66399578 368.63652483 -87.5078125 358.3125 C-86.88836153 356.77430523 -86.26890555 355.23611249 -85.64944458 353.69792175 C-82.85714312 346.76301463 -80.06739627 339.827102 -77.28524971 332.88811398 C-75.76964647 329.10845859 -74.25246112 325.32944002 -72.734375 321.55078125 C-72.43926907 320.81612452 -72.14416313 320.08146778 -71.84011459 319.32454872 C-67.85913709 309.4225313 -63.78944131 299.5633378 -59.640625 289.73046875 C-58.28551386 286.49090158 -56.93238288 283.25051524 -55.57995605 280.00982666 C-54.3502137 277.0895587 -53.09052452 274.18354395 -51.82910156 271.27685547 C-51.10323638 269.54069935 -50.37884972 267.80392401 -49.65625 266.06640625 C-49.31732727 265.31360886 -48.97840454 264.56081146 -48.62921143 263.78520203 C-46.5764225 258.72205532 -46.81291348 255.69451884 -48.84759521 250.64149475 C-49.16601379 249.91417648 -49.48443237 249.18685822 -49.8125 248.4375 C-50.32660236 247.10205659 -50.83757493 245.76540356 -51.34521484 244.42749023 C-51.90193351 243.03261522 -52.46149181 241.6388712 -53.0234375 240.24609375 C-53.33924774 239.45732346 -53.65505798 238.66855316 -53.98043823 237.85588074 C-55.04687418 235.19454248 -56.1171744 232.53477609 -57.1875 229.875 C-57.96860458 227.92829491 -58.74952232 225.98151484 -59.53027344 224.03466797 C-66.08970479 207.6881945 -72.67835609 191.35343069 -79.26081181 175.01621819 C-84.81842402 161.22257982 -90.37479059 147.42844038 -95.92850494 133.63323212 C-96.80013836 131.46820475 -97.67188472 129.30322288 -98.54364014 127.13824463 C-101.72045655 119.24797074 -104.89326696 111.35610709 -108.06018066 103.46185303 C-109.01150405 101.09193267 -109.96403729 98.72249758 -110.91784668 96.35357666 C-112.22326678 93.11072706 -113.5243206 89.86615999 -114.82421875 86.62109375 C-115.20299667 85.68288284 -115.5817746 84.74467194 -115.97203064 83.7780304 C-120.88660842 71.47120368 -123.16117495 60.13254776 -117.8125 47.4375 C-112.71144289 37.14195983 -104.87666315 30.53787825 -94.01953125 26.82421875 C-90.58670157 26.22271408 -87.16202733 26.17087844 -83.6875 26.125 C-82.97851562 26.09599609 -82.26953125 26.06699219 -81.5390625 26.03710938 C-69.79432585 25.8998058 -60.92492202 32.70795571 -51.6875 39.1875 C-50.52926676 39.98917908 -49.37041606 40.78996685 -48.2109375 41.58984375 C-45.40528489 43.53042014 -42.60615326 45.4797078 -39.8125 47.4375 C-39.83135254 46.57809814 -39.85020508 45.71869629 -39.86962891 44.83325195 C-40.02497746 32.70155432 -38.20244822 22.61605954 -29.8125 13.4375 C-29.02875 12.550625 -28.245 11.66375 -27.4375 10.75 C-19.36867172 3.64174652 -10.76331984 -0.10286405 0 0 Z M-14.0625 27.8125 C-17.73593025 32.41871228 -19.15823803 36.05340543 -19.09213257 42.0480957 C-18.52240106 46.91633731 -16.44844632 51.31766439 -14.58203125 55.8125 C-14.12893585 56.93530869 -13.67584045 58.05811737 -13.20901489 59.21495056 C-12.21791735 61.66534948 -11.22203082 64.11307836 -10.21725464 66.55783081 C-8.58698236 70.52466877 -6.9760483 74.49919405 -5.36743164 78.47485352 C-3.05384732 84.18814256 -0.73188534 89.89796208 1.59472656 95.60595703 C5.13677082 104.2992334 8.64666933 113.00527891 12.1484375 121.71484375 C12.73512926 123.17360782 13.32182973 124.63236839 13.90853882 126.09112549 C15.09284509 129.03596958 16.27697039 131.98088636 17.46099854 134.92584229 C20.47692339 142.42674184 23.49507835 149.92674165 26.515625 157.42578125 C26.82091755 158.18382805 27.1262101 158.94187485 27.44075394 159.72289276 C31.84214045 170.64905106 36.26821956 181.56498964 40.70814514 192.47554016 C43.25414925 198.73272162 45.79320437 204.99271583 48.33059597 211.25339413 C50.42147837 216.4106301 52.52142096 221.56405326 54.628088 226.71485996 C55.92972486 229.90357863 57.22267315 233.09576632 58.513237 236.28898048 C59.11477461 237.77220606 59.71993343 239.25396889 60.3289566 240.73413658 C61.16298403 242.76250904 61.98396375 244.79570339 62.80200195 246.83056641 C63.26524368 247.96797272 63.72848541 249.10537903 64.20576477 250.2772522 C66.00614592 256.07275633 65.24455738 260.04736164 62.9855957 265.58544922 C62.49744385 266.79696152 62.00929199 268.00847382 61.50634766 269.25669861 C60.95882622 270.58526389 60.41113172 271.91375786 59.86328125 273.2421875 C59.29211954 274.6489603 58.72191244 276.056121 58.15258789 277.46363831 C56.92548743 280.49174139 55.69193593 283.51710335 54.45327759 286.54049683 C52.47241642 291.37575755 50.50597157 296.21679898 48.54174805 301.05883789 C46.14392245 306.96716148 43.74282178 312.87413209 41.33732319 318.77933598 C37.1097713 329.15811995 32.90574546 339.54619916 28.71875 349.94140625 C28.41823605 350.68741089 28.11772209 351.43341553 27.80810165 352.20202637 C24.80805063 359.65036293 21.81134362 367.10004318 18.81599998 374.5502739 C17.62507846 377.51236339 16.43395185 380.47437039 15.242733 383.43634033 C14.64976963 384.91081558 14.05688653 386.38532311 13.46408463 387.85986328 C9.8061387 396.95748885 6.13116412 406.04794794 2.43376255 415.12961292 C-0.04660797 421.22234726 -2.51827575 427.31856122 -4.98375034 433.41733837 C-6.715704 437.69973571 -8.45917173 441.97718755 -10.21167755 446.25121212 C-11.28323048 448.87290458 -12.34312905 451.49918993 -13.39977646 454.1269207 C-14.11998168 455.90803724 -14.85408087 457.68351617 -15.58865356 459.45875549 C-18.257214 466.13630837 -20.12459361 471.59660804 -18.18359375 478.7578125 C-15.16491481 484.59308308 -11.18393887 489.31368704 -4.8125 491.4375 C7.38983745 493.27936226 15.12578698 486.68615143 24.5625 479.85546875 C31.65297339 474.7606637 38.88845852 469.90345365 46.16879272 465.08538818 C50.09563614 462.48603327 54.01658078 459.87781059 57.9375 457.26953125 C59.17810432 456.44443054 59.17810432 456.44443054 60.44377136 455.60266113 C70.28468896 449.05121617 80.07910622 442.43098451 89.875 435.8125 C102.88927357 427.02089821 115.92255194 418.25986987 129 409.5625 C138.39099905 403.31579447 147.75506025 397.03541661 157.06201172 390.66381836 C166.88862057 383.94321876 176.75608931 377.28326701 186.625 370.625 C188.00948334 369.69077209 188.00948334 369.69077209 189.42193604 368.7376709 C203.71897219 359.09323693 218.06136541 349.51876097 232.4239502 339.97232056 C242.52262417 333.25664464 252.55059249 326.46507943 262.47021484 319.48681641 C271.2371193 313.34502119 280.14930964 307.42623231 289.0625 301.5 C290.62028086 300.46293284 292.17797996 299.42574287 293.7355957 298.38842773 C306.10679602 290.15126931 306.10679602 290.15126931 311.1484375 286.81542969 C314.62730902 284.51309315 318.09531156 282.19489177 321.5625 279.875 C322.56522949 279.2157251 323.56795898 278.5564502 324.60107422 277.87719727 C331.10138221 273.50602664 338.22983888 268.4639106 340.1875 260.4375 C340.81261518 254.08216239 339.90415627 249.68767633 336.1875 244.4375 C332.04253182 239.78107045 326.81627648 236.46092868 321.64453125 233.0546875 C320.29627469 232.16118174 318.94839369 231.2671091 317.60083008 230.37255859 C316.88456451 229.89711609 316.16829895 229.42167358 315.43032837 228.93182373 C311.50415349 226.31594087 307.59619279 223.67315386 303.6875 221.03125 C302.85158829 220.46656509 302.01567657 219.90188019 301.1544342 219.32008362 C299.40518627 218.13838952 297.65599622 216.95660973 295.90686035 215.77474976 C280.45437806 205.33476916 264.96915358 194.94680285 249.4375 184.625 C238.49483358 177.3521114 227.61484201 170.01665044 216.86523438 162.46044922 C207.73027181 156.06432652 198.44189228 149.90361848 189.15405273 143.73291016 C176.23211922 135.14744359 163.35518159 126.4975774 150.5 117.8125 C137.48567799 109.02096934 124.45244861 100.25987024 111.375 91.5625 C101.99720905 85.32458024 92.64516207 79.05465472 83.35253906 72.69018555 C73.14180044 65.70483023 62.88153887 58.79284637 52.625 51.875 C51.72219299 51.26574677 50.81938599 50.65649353 49.88922119 50.02877808 C43.65969826 45.82514907 37.42546249 41.62859405 31.1875 37.4375 C29.74349823 36.4665036 29.74349823 36.4665036 28.27032471 35.47589111 C25.38122899 33.53462248 22.48980398 31.59687422 19.59765625 29.66015625 C18.71242783 29.06496689 17.8271994 28.46977753 16.91514587 27.85655212 C16.09115799 27.30584549 15.2671701 26.75513885 14.41821289 26.18774414 C13.69581924 25.70358536 12.9734256 25.21942657 12.22914124 24.72059631 C3.24815849 19.07637947 -6.79437469 19.81233329 -14.0625 27.8125 Z M-97.125 54 C-100.00323651 58.15745274 -100.07464095 61.4780677 -99.8125 66.4375 C-98.97574412 69.58518982 -98.97574412 69.58518982 -97.6796875 72.70703125 C-97.21095215 73.90666504 -96.7422168 75.10629883 -96.25927734 76.34228516 C-95.73574434 77.64501469 -95.2118057 78.94758126 -94.6875 80.25 C-94.1406804 81.63300116 -93.59463641 83.0163092 -93.04931641 84.39990234 C-88.61863184 95.59644637 -84.02084715 106.72575808 -79.41137695 117.84960938 C-74.07161134 130.74470977 -68.87980148 143.69648517 -63.72070312 156.66479492 C-58.81043963 168.99585973 -53.84210684 181.3019688 -48.83940697 193.59575081 C-46.69391725 198.87148456 -44.55411174 204.14952718 -42.41422367 209.42753506 C-40.62623278 213.83596107 -38.83421557 218.24266842 -37.03347778 222.64590454 C-35.32054857 226.83451538 -33.61741504 231.02698012 -31.92125511 235.22240829 C-31.28641296 236.78746115 -30.64791394 238.35103614 -30.00557899 239.91302872 C-29.11821884 242.07226731 -28.24394328 244.23637429 -27.37255859 246.40209961 C-26.62792862 248.23036537 -26.62792862 248.23036537 -25.86825562 250.0955658 C-24.00515257 255.99311226 -24.71029629 259.93668055 -27.0144043 265.58544922 C-27.5025058 266.79683563 -27.9906073 268.00822205 -28.49349976 269.25631714 C-29.0410737 270.5850089 -29.58881905 271.91363003 -30.13671875 273.2421875 C-30.70833864 274.65010454 -31.27900339 276.0584097 -31.8487854 277.46707153 C-33.07633947 280.49632075 -34.31034106 283.52283016 -35.54946899 286.54736328 C-37.52195 291.36208132 -39.48025412 296.1824837 -41.4362793 301.00390625 C-43.82623235 306.89239593 -46.21946499 312.77953091 -48.61692905 318.66496658 C-52.97888389 329.37405231 -57.31404784 340.09374161 -61.6328125 350.8203125 C-61.94739222 351.60163733 -62.26197193 352.38296215 -62.58608437 353.18796349 C-64.15106719 357.07546099 -65.71549397 360.9631819 -67.27957153 364.8510437 C-69.1128166 369.40777818 -70.94773052 373.96383943 -72.78295898 378.51977539 C-79.39052558 394.92408537 -85.99036109 411.33145661 -92.5625 427.75 C-93.05697128 428.98423706 -93.05697128 428.98423706 -93.56143188 430.2434082 C-94.4533968 432.470474 -95.34415648 434.6980169 -96.234375 436.92578125 C-96.71487305 438.12759033 -97.19537109 439.32939941 -97.69042969 440.56762695 C-99.90545496 446.23290592 -100.80708723 450.6747577 -98.6875 456.5625 C-95.89304185 460.84733583 -92.11621248 464.62220615 -86.9921875 465.88671875 C-80.73107478 466.53405413 -76.71167048 464.49811106 -71.6171875 461.1015625 C-70.19344654 460.17836294 -68.76842613 459.25713421 -67.34228516 458.33764648 C-66.23037811 457.6178511 -66.23037811 457.6178511 -65.0960083 456.8835144 C-62.08033504 454.97386206 -59.00180872 453.18264494 -55.91819763 451.38555908 C-36.81775658 440.17182327 -22.58626592 431.17538539 -16.19018555 409.26464844 C-14.01995284 401.83210824 -11.29106613 394.70388698 -8.3515625 387.5390625 C-7.82559694 386.24265401 -7.30031135 384.94596946 -6.77565002 383.64903259 C-5.6790251 380.94058015 -4.57895756 378.23356557 -3.47616577 375.52761841 C-1.84467359 371.52140657 -0.22738417 367.50958462 1.38549805 363.49584961 C1.64919913 362.8396548 1.91290022 362.18345999 2.18459225 361.50738049 C2.71970771 360.17576711 3.25481402 358.84415007 3.78991127 357.51252937 C5.15162364 354.12635301 6.51715873 350.74171892 7.88232422 347.35693359 C9.88758705 342.38457459 11.88894698 337.41067493 13.88558197 332.43484497 C15.36369234 328.751559 16.84346244 325.06894173 18.32421875 321.38671875 C18.61508614 320.66341118 18.90595352 319.94010361 19.20563507 319.19487762 C23.14319854 309.41232259 27.16764404 299.67200905 31.26953125 289.95703125 C32.61354849 286.74526191 33.95539752 283.53259694 35.2963562 280.31954956 C36.13268939 278.33328595 36.97929948 276.35131466 37.83670044 274.37405396 C39.00767872 271.67336309 40.14373757 268.9603459 41.2734375 266.2421875 C41.79143669 265.08895744 41.79143669 265.08895744 42.31990051 263.91242981 C44.39268921 258.79844536 44.22416815 255.75274927 42.15933228 250.64645386 C41.83862762 249.91749908 41.51792297 249.18854431 41.1875 248.4375 C40.66255648 247.0757099 40.14102037 245.71260099 39.62304688 244.34814453 C39.05346762 242.92112535 38.48105476 241.49523487 37.90625 240.0703125 C37.58492599 239.26773514 37.26360199 238.46515778 36.93254089 237.63825989 C35.85347652 234.94528252 34.77053666 232.25388205 33.6875 229.5625 C32.90193195 227.60496636 32.11653724 225.64736316 31.33129883 223.68969727 C28.62123472 216.93713832 25.90458318 210.18723704 23.1875 203.4375 C22.67070039 202.15334667 22.15391601 200.86918721 21.637146 199.58502197 C20.00185417 195.52141747 18.36625076 191.45793846 16.73046875 187.39453125 C16.4525222 186.70407589 16.17457565 186.01362053 15.88820648 185.30224228 C12.73031663 177.45824817 9.56928617 169.61553731 6.40185547 161.77539062 C5.24822875 158.91932883 4.09476168 156.06320261 2.94140625 153.20703125 C2.65732155 152.50360722 2.37323685 151.80018318 2.08054352 151.07544327 C-1.74030525 141.61167488 -5.52864324 132.1356291 -9.28748894 122.64707375 C-10.96363347 118.42042453 -12.64867918 114.19731182 -14.33236694 109.97366333 C-15.22784477 107.71955175 -16.11874037 105.46361381 -17.00479126 103.20578003 C-18.21828618 100.11425934 -19.44719201 97.02929712 -20.6796875 93.9453125 C-21.02745743 93.04652878 -21.37522736 92.14774506 -21.73353577 91.22172546 C-25.35323122 82.2575396 -31.36955407 78.15441314 -39.2421875 72.96484375 C-40.15074493 72.35991592 -41.05930237 71.7549881 -41.99539185 71.13172913 C-43.91162532 69.85747817 -45.82970622 68.58600156 -47.74951172 67.31713867 C-50.67441844 65.38364748 -53.59351236 63.44163234 -56.51171875 61.49804688 C-58.37987302 60.25730747 -60.24835199 59.0170568 -62.1171875 57.77734375 C-62.98407196 57.20120834 -63.85095642 56.62507294 -64.74411011 56.03147888 C-81.12505335 45.20604409 -81.12505335 45.20604409 -97.125 54 Z " fill="#000000" transform="translate(135.8125,-0.4375)"/>
<path d="M0 0 C3.14966565 1.32170041 5.81811737 3.1599005 8.6015625 5.125 C9.39158661 5.65834961 10.18161072 6.19169922 10.99557495 6.74121094 C13.55264912 8.47464637 16.08847586 10.23666392 18.625 12 C20.40178435 13.21271287 22.17978832 14.42364068 23.95898438 15.6328125 C28.99134661 19.06181254 33.99930682 22.52503164 39 26 C40.14547293 26.79432114 41.29097605 27.58859874 42.43652344 28.3828125 C45.99798767 30.85655681 49.55522857 33.33603711 53.10302734 35.8293457 C62.87089947 42.67175676 72.81593229 49.24695575 82.74786377 55.84753418 C96.1601774 64.76135827 109.53111378 73.73407402 122.875 82.75 C136.57055247 92.0025716 150.2918597 101.21405018 164.05462646 110.36633301 C174.09833086 117.0466933 184.09693074 123.78713181 194.015625 130.65234375 C195.47234318 131.64165039 196.94328717 132.6100938 198.421875 133.56640625 C199.23140625 134.09105469 200.0409375 134.61570313 200.875 135.15625 C201.98488281 135.86491211 201.98488281 135.86491211 203.1171875 136.58789062 C205.5921119 138.44408393 206.82860932 140.19643058 207.4765625 143.234375 C207.87077612 149.91525838 207.87077612 149.91525838 205.56030273 152.79345703 C200.08241314 157.28307824 194.372101 161.26279935 188.4375 165.125 C186.27526902 166.54960925 184.1138493 167.97545034 181.953125 169.40234375 C181.38804733 169.77472672 180.82296967 170.14710968 180.24076843 170.53077698 C174.31671556 174.43886266 168.44267646 178.41956962 162.57211304 182.40737915 C159.31107586 184.62243423 156.04808822 186.83461243 152.78515625 189.046875 C152.09637894 189.51390335 151.40760162 189.9809317 150.69795227 190.46211243 C141.34868842 196.79965309 131.987999 203.12027476 122.625 209.4375 C121.25316055 210.36313248 121.25316055 210.36313248 119.85360718 211.3074646 C106.34018534 220.42305462 92.8012752 229.49938633 79.21728516 238.50952148 C71.62030597 243.55343978 64.07747139 248.67133605 56.55757141 253.82945251 C46.63800051 260.62874197 36.66133236 267.34318725 26.6875 274.0625 C24.75321709 275.36647992 22.81897215 276.67051616 20.88476562 277.97460938 C19.03128396 279.22400871 17.17776958 280.47335953 15.32421875 281.72265625 C14.47421799 282.295569 13.62421722 282.86848175 12.74845886 283.45875549 C11.18837416 284.50974016 9.62752919 285.55959759 8.06575012 286.60806274 C6.76383071 287.48531799 5.46564858 288.36817014 4.17289734 289.25888062 C0.21341702 291.96981722 -2.14412015 292.60603352 -6.87890625 292.3984375 C-10.06134526 291.80063128 -11.81578972 290.32072342 -14 288 C-15.94954547 284.10090907 -15.4942797 279.76454753 -14.3480835 275.67269897 C-13.38028905 273.02449879 -12.32935926 270.42572473 -11.2421875 267.82421875 C-10.83485886 266.81764725 -10.42753021 265.81107574 -10.00785828 264.77400208 C-9.1140256 262.57000586 -8.21384236 260.36857709 -7.30813599 258.16943359 C-5.85189198 254.63135698 -4.41384333 251.08636248 -2.98022461 247.5390625 C-0.85585954 242.28646008 1.27644412 237.03715306 3.41552734 231.79052734 C3.70102668 231.09025106 3.98652601 230.38997478 4.28067684 229.66847801 C5.18703668 227.44561888 6.09350681 225.22280475 7 223 C11.4678922 212.04429279 15.92730766 201.08530552 20.35647583 190.11387539 C22.39964613 185.05530143 24.45836869 180.00342786 26.52880955 174.95595837 C27.82803302 171.77904289 29.11343982 168.59666917 30.39525414 165.41269493 C30.99763841 163.9244786 31.60569742 162.43854494 32.21978188 160.95511818 C33.06479725 158.91146247 33.88897908 156.86053138 34.70874023 154.80664062 C35.17755112 153.65570923 35.646362 152.50477783 36.12937927 151.31896973 C37.7933283 144.97568351 35.75629247 139.83304025 33.3581543 133.93041992 C32.95203494 132.9214149 32.95203494 132.9214149 32.53771114 131.89202595 C31.6406041 129.66843524 30.73246776 127.44952906 29.82421875 125.23046875 C29.18373786 123.64933131 28.54397273 122.06790377 27.90487671 120.48620605 C26.54563682 117.12616058 25.1816749 113.76808739 23.81399536 110.41146851 C21.68158757 105.17695717 19.5622637 99.93721245 17.44506836 94.6965332 C11.91124927 81.00536686 6.36178598 67.32061017 0.774436 53.65119457 C-1.37722007 48.38630435 -3.51722788 43.11674931 -5.65292358 37.84536743 C-6.91148683 34.75144803 -8.18554893 31.6642206 -9.46020508 28.5769043 C-10.2126012 26.72218699 -10.96420211 24.86714682 -11.71484375 23.01171875 C-12.05391754 22.20375854 -12.39299133 21.39579834 -12.74234009 20.56335449 C-14.77822902 15.46679804 -15.48961416 11.49620615 -15 6 C-11.03690105 -0.20885502 -7.02674571 -0.99355822 0 0 Z M19 39 C19.65688252 42.91102546 20.81748966 46.34967092 22.29394531 50.02661133 C22.77244934 51.22429642 23.25095337 52.42198151 23.74395752 53.65596008 C24.27190928 54.96469246 24.79996832 56.27338156 25.328125 57.58203125 C25.87883471 58.95539839 26.42918127 60.32891121 26.97918701 61.70256042 C28.43677097 65.33980666 29.89964294 68.97490417 31.36352539 72.60961914 C32.51670513 75.47525967 33.6662983 78.34233084 34.81554413 81.20955086 C35.95068499 84.04114895 37.08738286 86.87212116 38.22401428 89.70312119 C39.07953618 91.83554867 39.9332714 93.96868611 40.7869873 96.10183716 C43.41477291 102.65582129 46.0678333 109.19595394 48.8192482 115.69917393 C50.04809988 118.60520198 51.26486323 121.51623209 52.4814682 124.4274044 C53.05814481 125.79654215 53.64117738 127.16302345 54.23111725 128.52649879 C58.34882149 138.04560019 61.03186468 145.72124964 57.48144531 155.83984375 C56.78151141 157.54648829 56.06267316 159.24546511 55.328125 160.9375 C54.9380275 161.87633026 54.54792999 162.81516052 54.14601135 163.78244019 C52.86297627 166.86176843 51.55632786 169.93049034 50.25 173 C48.88857948 176.2540847 47.53357934 179.51080002 46.17854309 182.76754761 C45.23757749 185.02746767 44.29450271 187.2865106 43.34941101 189.54470825 C38.49188284 201.16106554 33.80427266 212.84362965 29.14221191 224.53955078 C27.82600791 227.84111677 26.50660491 231.14138897 25.18652344 234.44140625 C24.38069743 236.45826864 23.57502504 238.47519241 22.76953125 240.4921875 C22.21622887 241.87626297 22.21622887 241.87626297 21.65174866 243.28829956 C21.14701271 244.55493942 21.14701271 244.55493942 20.63208008 245.84716797 C20.33932693 246.58095673 20.04657379 247.31474548 19.74494934 248.07077026 C19.11709562 249.69675206 18.5511821 251.34645369 18 253 C23.15083953 251.32751625 27.22782068 248.25345022 31.625 245.1875 C33.59934282 243.82679264 35.57469916 242.46755528 37.55078125 241.109375 C38.38572365 240.53478798 38.38572365 240.53478798 39.23753357 239.94859314 C48.05665951 233.88729769 56.93937494 227.91929839 65.8125 221.9375 C66.74228668 221.31038116 67.67207336 220.68326233 68.6300354 220.03713989 C81.68317148 211.23408496 94.76431314 202.47442185 107.87298584 193.7543335 C116.75880155 187.84228455 125.6151603 181.89151629 134.42163086 175.86157227 C143.38249075 169.72697962 152.37863976 163.64484882 161.375 157.5625 C162.15221405 157.0369754 162.9294281 156.51145081 163.73019409 155.97000122 C168.15309448 152.97945577 172.5763747 149.98947304 177 147 C175.71157584 143.13472753 174.24020036 142.56096109 170.8515625 140.3515625 C170.30507553 139.99145081 169.75858856 139.63133911 169.19554138 139.26031494 C167.98805314 138.46576038 166.77813871 137.67488421 165.56619263 136.887146 C162.14907814 134.66536887 158.75019012 132.41588922 155.34765625 130.171875 C154.6069841 129.68455902 153.86631195 129.19724304 153.10319519 128.69515991 C144.6174021 123.10590872 136.20362155 117.4106928 127.78717041 111.71780396 C112.64885567 101.47915411 97.4708942 91.30292396 82.25 81.1875 C70.98727915 73.70199333 59.78550394 66.15217575 48.71533203 58.38354492 C42.23827029 53.8417403 35.70305053 49.3942849 29.125 45 C28.21927246 44.39317383 27.31354492 43.78634766 26.38037109 43.16113281 C25.55617676 42.61295898 24.73198242 42.06478516 23.8828125 41.5 C23.15465332 41.0153125 22.42649414 40.530625 21.67626953 40.03125 C20.18605965 38.91266889 20.18605965 38.91266889 19 39 Z " fill="#000000" transform="translate(206,110)"/>
</svg>
